<?xml version="1.0" standalone="no"?>
<!DOCTYPE svg PUBLIC "-//W3C//DTD SVG 20010904//EN"
 "http://www.w3.org/TR/2001/REC-SVG-20010904/DTD/svg10.dtd">
<svg version="1.0" xmlns="http://www.w3.org/2000/svg"
 width="131.000000pt" height="99.000000pt" viewBox="0 0 131.000000 99.000000"
 preserveAspectRatio="xMidYMid meet">

<g transform="translate(0.000000,99.000000) scale(0.100000,-0.100000)"
fill="#000000" stroke="none">
<path d="M1120 883 c-8 -3 -23 -13 -33 -21 -16 -14 -16 -16 0 -34 16 -18 18
-17 49 13 41 40 34 60 -16 42z"/>
<path d="M1141 823 l-41 -46 -23 21 c-26 25 -37 28 -37 10 0 -15 50 -68 64
-68 6 0 35 22 64 48 40 35 52 52 47 65 -11 28 -31 20 -74 -30z"/>
<path d="M1170 765 c-45 -46 -52 -57 -40 -65 23 -15 29 -13 66 24 24 24 34 43
34 65 0 17 -1 31 -3 31 -1 0 -27 -25 -57 -55z"/>
<path d="M275 656 c-28 -13 -75 -51 -75 -61 0 -3 17 -5 38 -5 31 0 40 5 57 33
33 55 32 56 -20 33z"/>
<path d="M397 630 c25 -37 30 -40 72 -40 l46 1 -30 25 c-30 25 -85 54 -104 54
-5 0 2 -18 16 -40z"/>
<path d="M565 655 c-47 -22 -56 -30 -49 -48 11 -29 40 -19 68 23 29 43 26 46
-19 25z"/>
<path d="M687 631 c23 -36 31 -41 65 -41 35 0 38 2 29 19 -10 18 -52 41 -98
56 -22 6 -22 6 4 -34z"/>
<path d="M317 631 c-22 -37 -21 -41 3 -41 16 0 20 7 20 35 0 19 -1 35 -3 35
-1 0 -10 -13 -20 -29z"/>
<path d="M602 625 l-22 -35 25 0 c22 0 25 4 25 35 0 19 -1 35 -2 35 -2 0 -13
-16 -26 -35z"/>
<path d="M770 650 c0 -5 5 -10 10 -10 6 0 10 5 10 10 0 6 -4 10 -10 10 -5 0
-10 -4 -10 -10z"/>
<path d="M889 628 c16 -26 28 -34 58 -36 l37 -3 -19 21 c-21 24 -67 50 -85 50
-7 0 -4 -13 9 -32z"/>
<path d="M360 623 c0 -26 4 -33 20 -33 25 0 25 11 0 41 l-19 24 -1 -32z"/>
<path d="M650 623 c0 -27 4 -33 20 -33 17 0 19 3 11 18 -27 46 -31 48 -31 15z"/>
<path d="M840 623 c0 -27 4 -33 20 -33 17 0 19 3 11 18 -27 46 -31 48 -31 15z"/>
<path d="M804 629 c-3 -6 -1 -16 5 -22 8 -8 11 -5 11 11 0 24 -5 28 -16 11z"/>
<path d="M174 545 c-21 -51 -18 -55 30 -55 40 0 44 3 50 28 4 15 9 35 12 45 5
14 -1 17 -36 17 -37 0 -42 -3 -56 -35z"/>
<path d="M276 548 c-13 -49 -8 -58 29 -58 34 0 35 1 35 40 0 37 -2 40 -29 40
-21 0 -30 -6 -35 -22z"/>
<path d="M360 530 c0 -39 1 -40 35 -40 37 0 42 9 29 58 -5 16 -14 22 -35 22
-27 0 -29 -3 -29 -40z"/>
<path d="M434 558 c3 -7 7 -25 10 -40 6 -26 10 -28 51 -28 48 0 53 7 35 54 -8
23 -15 26 -54 26 -32 0 -44 -4 -42 -12z"/>
<path d="M566 554 c-15 -39 -7 -54 29 -54 33 0 35 2 35 35 0 32 -3 35 -29 35
-17 0 -31 -6 -35 -16z"/>
<path d="M650 535 c0 -33 2 -35 35 -35 34 0 35 1 29 28 -10 39 -12 42 -40 42
-21 0 -24 -5 -24 -35z"/>
<path d="M726 543 c9 -40 17 -45 61 -41 39 3 39 3 31 36 -8 30 -11 32 -53 32
-44 0 -45 -1 -39 -27z"/>
<path d="M840 535 c0 -33 2 -35 35 -35 38 0 40 5 25 44 -7 19 -17 26 -35 26
-22 0 -25 -4 -25 -35z"/>
<path d="M924 554 c3 -9 6 -24 6 -35 0 -16 7 -19 40 -19 41 0 45 5 34 48 -5
18 -13 22 -46 22 -33 0 -39 -3 -34 -16z"/>
<path d="M160 470 c0 -6 7 -26 14 -45 14 -32 19 -35 56 -35 35 0 41 3 36 18
-3 9 -8 29 -12 45 -6 24 -10 27 -50 27 -24 0 -44 -5 -44 -10z"/>
<path d="M270 454 c0 -39 18 -64 45 -64 23 0 25 4 25 45 0 45 0 45 -35 45 -31
0 -35 -3 -35 -26z"/>
<path d="M360 435 c0 -41 2 -45 25 -45 26 0 45 30 45 71 0 15 -7 19 -35 19
-35 0 -35 0 -35 -45z"/>
<path d="M447 463 c-20 -75 -21 -73 27 -73 40 0 45 3 55 31 18 53 15 59 -33
59 -34 0 -46 -4 -49 -17z"/>
<path d="M560 461 c0 -41 19 -71 45 -71 23 0 25 4 25 45 0 45 0 45 -35 45 -28
0 -35 -4 -35 -19z"/>
<path d="M650 435 c0 -41 2 -45 24 -45 18 0 27 8 35 31 18 51 14 59 -24 59
-35 0 -35 0 -35 -45z"/>
<path d="M737 463 c-20 -74 -20 -73 22 -73 42 0 52 9 65 63 6 26 5 27 -38 27
-34 0 -46 -4 -49 -17z"/>
<path d="M840 435 c0 -41 2 -45 24 -45 18 0 27 8 35 31 18 51 14 59 -24 59
-35 0 -35 0 -35 -45z"/>
<path d="M930 451 c0 -16 -3 -36 -6 -45 -5 -13 1 -16 28 -16 28 0 37 5 46 25
23 50 16 65 -28 65 -38 0 -40 -2 -40 -29z"/>
<path d="M540 405 c0 -8 4 -15 10 -15 5 0 7 7 4 15 -4 8 -8 15 -10 15 -2 0 -4
-7 -4 -15z"/>
<path d="M226 349 c19 -22 83 -54 90 -46 3 2 -3 18 -13 36 -15 26 -24 31 -57
31 l-39 0 19 -21z"/>
<path d="M310 351 c16 -32 30 -34 30 -7 0 19 -5 26 -20 26 -17 0 -19 -3 -10
-19z"/>
<path d="M360 344 c0 -27 14 -25 30 7 9 16 7 19 -10 19 -15 0 -20 -7 -20 -26z"/>
<path d="M393 335 c-13 -20 -17 -35 -11 -35 18 0 95 39 108 56 11 12 6 14 -31
14 -39 -1 -47 -5 -66 -35z"/>
<path d="M517 363 c-4 -3 -7 -10 -7 -14 0 -8 89 -53 95 -47 2 2 -5 18 -17 36
-19 30 -54 43 -71 25z"/>
<path d="M600 351 c16 -32 30 -34 30 -7 0 19 -5 26 -20 26 -17 0 -19 -3 -10
-19z"/>
<path d="M650 343 c0 -26 1 -26 15 -7 19 25 19 34 0 34 -10 0 -15 -10 -15 -27z"/>
<path d="M683 335 c-12 -19 -18 -35 -12 -35 21 0 75 28 93 49 l19 21 -39 0
c-33 -1 -42 -6 -61 -35z"/>
<path d="M804 359 c-3 -6 -1 -16 5 -22 8 -8 11 -5 11 11 0 24 -5 28 -16 11z"/>
<path d="M840 343 c1 -27 1 -27 15 -9 19 25 19 36 0 36 -10 0 -15 -10 -15 -27z"/>
<path d="M888 340 c-12 -21 -13 -30 -5 -30 13 0 87 47 87 55 0 3 -15 5 -32 5
-26 0 -37 -6 -50 -30z"/>
<path d="M770 320 c0 -5 5 -10 10 -10 6 0 10 5 10 10 0 6 -4 10 -10 10 -5 0
-10 -4 -10 -10z"/>
<path d="M177 213 c-17 -16 -5 -33 23 -33 40 0 38 -18 -2 -23 -27 -4 -25 -4 7
-3 51 1 57 29 8 34 -18 2 -33 8 -33 14 0 6 13 8 29 6 17 -2 28 -1 25 4 -6 10
-48 11 -57 1z"/>
<path d="M338 193 c-2 -22 -9 -29 -30 -31 -24 -3 -28 0 -28 22 0 14 -4 26 -10
26 -11 0 -13 -20 -4 -44 4 -11 19 -16 45 -16 38 0 39 1 39 35 0 42 -7 46 -12
8z"/>
<path d="M377 213 c-4 -3 -7 -19 -7 -35 0 -26 3 -28 40 -28 22 0 40 3 40 8 0
4 -15 7 -32 7 -26 0 -33 4 -33 20 0 16 6 20 32 19 18 -1 30 2 27 7 -6 10 -57
12 -67 2z"/>
<path d="M474 206 c-13 -35 0 -51 44 -54 l43 -3 -3 33 c-3 30 -6 33 -41 36
-26 2 -39 -1 -43 -12z m74 -23 c3 -20 -1 -23 -27 -23 -27 0 -31 4 -31 26 0 22
4 25 28 22 19 -2 28 -9 30 -25z"/>
<path d="M587 213 c-11 -10 -8 -63 3 -63 6 0 10 13 10 29 0 25 5 30 28 34 26
4 26 4 -4 6 -17 0 -34 -2 -37 -6z"/>
<path d="M673 185 c0 -22 2 -30 4 -17 2 12 2 30 0 40 -3 9 -5 -1 -4 -23z"/>
<path d="M707 213 c-11 -11 -8 -65 3 -58 6 3 10 16 10 28 1 21 2 21 23 -5 31
-38 57 -37 57 2 0 17 -4 30 -10 30 -5 0 -10 -12 -10 -27 l-1 -28 -27 33 c-28
33 -34 37 -45 25z"/>
<path d="M820 185 c0 -34 1 -35 39 -35 30 0 40 4 44 20 7 27 -18 50 -54 50
-27 0 -29 -3 -29 -35z m68 -2 c3 -20 -1 -23 -27 -23 -23 0 -31 5 -31 18 0 25
10 33 35 30 12 -2 21 -12 23 -25z"/>
<path d="M924 206 c-13 -35 0 -51 44 -54 l43 -3 -3 33 c-3 30 -6 33 -41 36
-26 2 -39 -1 -43 -12z m74 -23 c3 -20 -1 -23 -27 -23 -23 0 -31 5 -31 18 0 25
10 33 35 30 12 -2 21 -12 23 -25z"/>
</g>
</svg>
